<?xml version="1.0" encoding="utf-8"?>
<!-- Generator: Adobe Illustrator 26.2.1, SVG Export Plug-In . SVG Version: 6.00 Build 0)  -->
<svg version="1.1" id="Capa_1" xmlns="http://www.w3.org/2000/svg" xmlns:xlink="http://www.w3.org/1999/xlink" x="0px" y="0px"
	 viewBox="0 0 1548.4 1922" style="enable-background:new 0 0 1548.4 1922;" xml:space="preserve">
<style type="text/css">
	.st0{opacity:0.21;fill:url(#SVGID_1_);}
	.st1{fill:#F5B977;}
	.st2{fill:#DE9761;}
	.st3{fill:#F6CF94;}
	.st4{fill:#5B3731;}
	.st5{fill:#442723;}
	.st6{fill:#191616;}
	.st7{fill:#FFFFFF;}
</style>
<g id="a">
</g>
<g id="b">
	<g>
		<linearGradient id="SVGID_1_" gradientUnits="userSpaceOnUse" x1="774.195" y1="1921.9901" x2="774.195" y2="1099.5001">
			<stop  offset="0" style="stop-color:#FFFFFF"/>
			<stop  offset="1" style="stop-color:#000000"/>
		</linearGradient>
		<path class="st0" d="M1518,1560.1l-694.7,350.2c-30.9,15.6-67.3,15.6-98.1,0l-260.4-131.2l-202.4-102l-232-116.9
			c-40.5-20.4-40.5-78.3,0-98.8l694.7-350.2c30.9-15.6,67.3-15.6,98.1,0l694.7,350.2C1558.5,1481.8,1558.5,1539.7,1518,1560.1
			L1518,1560.1z"/>
		<g>
			<path class="st1" d="M1494.3,351.5L823.5,11.4c-29.8-15.1-65-15.2-94.9-0.2l-672.4,337c-19.6,9.8-29.5,28.7-29.5,47.7l0,0
				l-1.9,839.3c0,18.9,9.7,37.9,29.3,47.8L724.9,1623c14.9,7.6,31.2,11.3,47.4,11.4c16.3,0,32.5-3.7,47.5-11.2l672.4-337
				c19.6-9.8,29.5-28.7,29.5-47.7l1.9-839.3C1523.6,380.3,1513.9,361.4,1494.3,351.5L1494.3,351.5z"/>
			<path class="st2" d="M1522.6,397.6v839.3c0,18.9-9.8,37.9-29.4,47.7l-671.6,338.5c-14.9,7.5-31.2,11.3-47.4,11.3V397.6H1522.6z"
				/>
			<path class="st3" d="M1493.2,445.3L821.6,783.8c-29.8,15-65,15-94.9,0L475.1,657l-195.6-98.6L55.2,445.3
				c-39.2-19.8-39.2-75.7,0-95.5L726.8,11.3c29.8-15,65-15,94.9,0l671.6,338.5C1532.4,369.6,1532.4,425.5,1493.2,445.3z"/>
			<polygon class="st4" points="1288.8,246.8 475.1,657 279.5,558.4 1093.2,148.2 			"/>
			<polygon class="st5" points="475.1,657 475.1,1057 279.5,958.3 279.5,558.4 			"/>
			<path class="st6" d="M614.2,1488.6c0,3.2,2.3,7.2,5.1,8.8l39.5,22.8c2.8,1.6,5.1,0.3,5.1-2.9c0-1.2-0.3-2.6-0.9-3.9
				c-0.6-1.3-1.4-2.6-2.4-3.6l-15.5-15.4l0.1-36.9c16,6.1,28.3-3,28.3-22.3l0.2-61.3l-24.5-14.2v29.2l-11.4-10.5l0.9,35l-14-46.4h7
				v-17.4l-26.3-15.2l-0.2,61.3c0,19.3,12.1,42.5,28.1,54.9l-0.1,36.9l-15.6-2.6C615.5,1484.7,614.2,1486.1,614.2,1488.6
				L614.2,1488.6z"/>
			<g>
				<path class="st6" d="M431.9,1370.8c-3.3-1.9-6-0.4-6,3.4l0,13.3c0,3.8,2.7,8.4,6,10.3l117.6,67.9c3.3,1.9,6,0.4,6-3.4l0-13.3
					c0-3.8-2.7-8.4-6-10.3L431.9,1370.8L431.9,1370.8z"/>
				<polygon class="st6" points="525.3,1303.1 497.9,1333 514.2,1342.5 514.1,1401.8 535.9,1414.4 536.1,1355.1 552.4,1364.5 				
					"/>
				<polygon class="st6" points="456.8,1263.6 429.3,1293.4 445.7,1302.9 445.5,1362.2 467.4,1374.8 467.5,1315.5 483.9,1325 				
					"/>
			</g>
			<g>
				<path class="st6" d="M1393,1037.6c7.1-4.1,13.9-3.7,17.6,1.2l7.7,10l15.6-19.7c0.2-0.2,0.3-0.3,0.4-0.4c0.3-0.2,0.5-0.1,0.6-0.1
					c0.1,0.1,0.4,0.3,0.2,1l-18.8,62.2c-0.1,0.4-0.4,0.8-0.8,1l-50.6,25.2c-0.6,0.3-0.7-0.1-0.8-0.3c-0.1-0.2-0.1-0.7,0.4-1.3
					l17.2-21.8l-14.2-18.5l-7.7-10.1c-0.1-0.2-0.3-0.3-0.4-0.5c-0.1-0.1-0.1-0.1-0.1-0.2c-0.1-0.1-0.2-0.2-0.3-0.3
					c-0.1-0.1-0.1-0.1-0.2-0.2c-0.1-0.1-0.2-0.2-0.3-0.3l-0.2-0.2c-0.1-0.1-0.2-0.2-0.3-0.2c-0.1-0.1-0.1-0.1-0.2-0.2
					c-0.1-0.1-0.2-0.2-0.3-0.2c-0.1-0.1-0.2-0.1-0.2-0.2c-0.1-0.1-0.2-0.1-0.3-0.2c-0.1-0.1-0.2-0.1-0.2-0.2
					c-0.1-0.1-0.2-0.1-0.3-0.2c-0.1-0.1-0.2-0.1-0.3-0.2c-0.1-0.1-0.2-0.1-0.3-0.2c-0.1,0-0.2-0.1-0.3-0.1c-0.1-0.1-0.2-0.1-0.3-0.1
					c-0.1,0-0.2-0.1-0.3-0.1c-0.1,0-0.2-0.1-0.3-0.1c-0.1,0-0.2-0.1-0.3-0.1c-0.1,0-0.2-0.1-0.3-0.1c-0.1,0-0.2-0.1-0.3-0.1
					c-0.1,0-0.2-0.1-0.3-0.1c-0.1,0-0.2-0.1-0.3-0.1c-0.1,0-0.2-0.1-0.3-0.1c-0.1,0-0.2,0-0.3-0.1c-0.1,0-0.2,0-0.3-0.1
					c-0.1,0-0.2,0-0.3-0.1c-0.1,0-0.2,0-0.3-0.1c-0.1,0-0.2,0-0.3,0c-0.1,0-0.2,0-0.3,0L1393,1037.6L1393,1037.6z"/>
				<path class="st6" d="M1305.4,1234.9l47.5-27c1.5-0.9,2.8-0.2,2.8,1.6l0.2,42.3c0,0.9-0.3,1.8-0.8,2.8c-0.5,0.9-1.2,1.6-2,2.1
					l-35.9,20.4c-7.2,4.1-13.9,3.5-17.6-1.4c-0.7-1-1.3-2.2-1.8-3.4c-0.7-1.9-1.1-4.1-1.1-6.4c0-0.9,0-1.8,0.1-2.8
					c0.2-2.5,0.7-5.2,1.5-8c0.2-0.8,0.5-1.6,0.8-2.4L1305.4,1234.9L1305.4,1234.9z"/>
				<path class="st6" d="M1310.6,1158.9c0.4-0.3,0.7-0.2,0.9,0l23.1,38.7c0.2,0.4,0,1-0.2,1.2c-0.1,0.2-0.3,0.5-0.6,0.6
					c-0.1,0.1-0.3,0.1-0.4,0.1l-17.7-0.8l-19.5,53.9c-0.1,0.3-0.2,0.7-0.3,1c-0.1,0.3-0.2,0.7-0.3,1c-0.1,0.1-0.1,0.3-0.1,0.4
					c-0.1,0.2-0.1,0.4-0.2,0.6l-0.2,0.6c0,0.1-0.1,0.3-0.1,0.4c-0.1,0.2-0.1,0.4-0.2,0.6c0,0.1-0.1,0.2-0.1,0.3
					c-0.1,0.2-0.1,0.4-0.2,0.6c-0.1,0.5-0.2,0.7-0.2,1c-0.1,0.5-0.2,0.7-0.2,0.9l-0.1,0.3c0,0.2-0.1,0.4-0.1,0.6
					c0,0.1,0,0.2-0.1,0.3c0,0.2-0.1,0.4-0.1,0.6c0,0.1,0,0.2-0.1,0.4c0,0.2,0,0.3-0.1,0.5c0,0.1,0,0.3,0,0.4c0,0.2,0,0.3-0.1,0.5
					c0,0.2,0,0.3,0,0.4c0,0.1,0,0.3,0,0.4c0,0.2,0,0.3,0,0.5c0,0.1,0,0.2,0,0.4c0,0.2,0,0.4,0,0.5c0,0.1,0,0.2,0,0.3
					c0,0.2,0,0.4,0,0.6c0,0.4,0,0.6,0,0.8l-21.4-28.8c-3.7-4.9-3.9-13.7-0.6-22.8l6.8-18.9l-16-0.7c-0.5,0-0.5-0.6-0.4-0.8
					c0-0.2,0.2-0.8,0.7-1.2L1310.6,1158.9L1310.6,1158.9z"/>
				<path class="st6" d="M1339.6,1068.4c3.5-2.1,7.1-3,10.2-2.8c3.1,0.2,5.7,1.6,7.6,4l7.2,9.4l-24.6,60.9c-0.5,1.3-1.4,2.4-2.4,2.9
					c-0.5,0.3-1,0.4-1.4,0.4l-31.8-3.3c-0.7-0.1-1.1-0.5-1.3-1.2c-0.2-0.7-0.1-1.7,0.3-2.6l18.5-46
					C1325.6,1080.9,1332.4,1072.6,1339.6,1068.4L1339.6,1068.4z"/>
				<path class="st6" d="M1397.6,1157c0.1-0.1,0.2-0.1,0.3-0.1c0.2,0,0.6-0.1,0.6,0.6l-0.2,23.2l41.9-24.1c0.3-0.2,0.6-0.3,0.8-0.5
					c0.1-0.1,0.2-0.1,0.3-0.2c0.2-0.1,0.3-0.2,0.5-0.3c0.2-0.1,0.3-0.2,0.5-0.3c0.1-0.1,0.2-0.1,0.3-0.2c0.2-0.1,0.3-0.2,0.5-0.4
					c0.4-0.3,0.6-0.4,0.8-0.6c0.4-0.3,0.6-0.4,0.8-0.6c0.4-0.3,0.6-0.4,0.7-0.6c0.4-0.3,0.5-0.4,0.7-0.6c0.4-0.3,0.5-0.5,0.7-0.6
					c0.4-0.3,0.5-0.5,0.7-0.6c0.1-0.1,0.2-0.2,0.2-0.2c0.2-0.1,0.3-0.3,0.4-0.4c0.1-0.1,0.2-0.2,0.3-0.3c0.1-0.1,0.3-0.3,0.4-0.4
					c0.1-0.1,0.2-0.2,0.3-0.3c0.1-0.1,0.2-0.2,0.3-0.4c0.1-0.1,0.2-0.2,0.3-0.4c0.1-0.1,0.2-0.2,0.3-0.3c0.1-0.1,0.3-0.3,0.4-0.4
					c0.1-0.1,0.2-0.2,0.2-0.3c0.1-0.2,0.3-0.3,0.4-0.5c0.3-0.4,0.5-0.5,0.6-0.7l-21.5,53.3c-3.7,9.1-10.4,17.3-17.5,21.4l-14.8,8.5
					l-0.2,21.1c0,0.6-0.4,1.1-0.6,1.3c-0.1,0.1-0.2,0.1-0.3,0.2c-0.2,0.1-0.5,0.2-0.7,0l-28.4-28.9c-0.2-0.2-0.2-0.7,0-1.1
					l29.1-64.4C1397.1,1157.3,1397.4,1157.1,1397.6,1157L1397.6,1157z"/>
				<path class="st6" d="M1439.4,1080.2c0.3-0.2,0.6-0.3,0.8-0.3c0.7-0.2,1.3,0.1,1.7,0.6l16.6,27.1c3.3,5.4,3.1,14.5-0.6,23.7
					c-0.2,0.4-0.3,0.6-0.4,0.9c-0.2,0.4-0.3,0.6-0.4,0.8c-0.2,0.4-0.3,0.6-0.4,0.8c-0.1,0.1-0.1,0.2-0.1,0.3
					c-0.1,0.2-0.2,0.4-0.3,0.6c-0.1,0.1-0.1,0.3-0.2,0.4c-0.1,0.1-0.1,0.3-0.2,0.4c-0.1,0.2-0.2,0.4-0.3,0.6
					c-1.6,2.9-3.3,5.5-5.3,7.9c-0.7,0.9-1.4,1.7-2.2,2.5c-2.1,2.2-4.3,4.1-6.6,5.6c-0.4,0.3-0.9,0.6-1.3,0.8l-13.8,7.9l-22-35.9
					c-0.7-1.2-0.2-3.4,1.2-5l32.5-38.6C1438.5,1080.9,1438.9,1080.5,1439.4,1080.2L1439.4,1080.2z"/>
			</g>
			<g>
				<path class="st6" d="M108.5,1200.2c-3-1.7-5.4-0.3-5.4,3.1c0,3.4,2.4,7.6,5.4,9.4l84.4,48.7c3,1.7,5.4,0.3,5.4-3.1
					c0-3.4-2.4-7.6-5.4-9.4L108.5,1200.2L108.5,1200.2z"/>
				<path class="st6" d="M108.6,1166.4c-3-1.7-5.4-0.3-5.4,3.1s2.4,7.6,5.4,9.3l130.8,75.5c3,1.7,5.4,0.3,5.4-3.1
					c0-3.4-2.4-7.6-5.4-9.3L108.6,1166.4L108.6,1166.4z"/>
				<path class="st7" d="M266.3,1326.5l-185-106.8l0.4-125.4l185,106.8L266.3,1326.5L266.3,1326.5z M108.5,1178.8l130.8,75.5
					c3,1.7,5.4,0.3,5.4-3.1c0-3.4-2.4-7.6-5.4-9.3l-130.8-75.5c-3-1.7-5.4-0.3-5.4,3.1C103.1,1172.9,105.5,1177.1,108.5,1178.8
					 M108.6,1145l130.8,75.5c3,1.7,5.4,0.3,5.4-3.1s-2.4-7.6-5.4-9.3l-130.8-75.5c-3-1.7-5.4-0.3-5.4,3.1S105.6,1143.3,108.6,1145
					 M108.4,1212.6l84.4,48.7c3,1.7,5.4,0.3,5.4-3.1s-2.4-7.6-5.4-9.4l-84.4-48.7c-3-1.7-5.4-0.3-5.4,3.1
					C103,1206.7,105.4,1210.9,108.4,1212.6"/>
				<path class="st6" d="M108.7,1132.6c-3-1.7-5.4-0.3-5.4,3.1c0,3.4,2.4,7.6,5.4,9.4l130.8,75.5c3,1.7,5.4,0.3,5.4-3.1
					c0-3.4-2.4-7.6-5.4-9.3L108.7,1132.6L108.7,1132.6z"/>
			</g>
		</g>
	</g>
</g>
</svg>
