<svg xmlns="http://www.w3.org/2000/svg" version="1.1" xmlns:xlink="http://www.w3.org/1999/xlink" width="262.03" height="262.03"><svg xmlns="http://www.w3.org/2000/svg" version="1.1" xmlns:xlink="http://www.w3.org/1999/xlink" width="262.03" height="262.03"><svg id="a" xmlns="http://www.w3.org/2000/svg" xmlns:xlink="http://www.w3.org/1999/xlink" viewBox="0 0 262.03 262.03"><defs><style>.c{fill:url(#b);}.d{fill:#071b41;}</style><linearGradient id="b" x1="67.47" y1="193.13" x2="205.85" y2="54.75" gradientTransform="matrix(1, 0, 0, 1, 0, 0)" gradientUnits="userSpaceOnUse"><stop offset="0" stop-color="#0496f0"></stop><stop offset="1" stop-color="#27f4fc"></stop></linearGradient></defs><path class="d" d="M131.01,0c124.63,0,131.01,6.39,131.01,131.01s-6.39,131.01-131.01,131.01S0,255.64,0,131.01,6.39,0,131.01,0Z"></path><path class="c" d="M50.55,91.34c-.62-1.39,1.33-2.06,2.29-2.89,16.29-14.09,34.26-25.42,54.48-33.04,.79-.3,1.77-.4,2.21-1.72-3.34-2.31-6.77-4.62-10.12-7.04-1.02-.74-2.73-1.43-2.19-3,.47-1.37,2.18-1.31,3.5-1.55,8.39-1.55,16.91-.99,24.88,1.21,14.22,3.93,28.74,2.68,43.08,4.13,13.81,1.39,27.02,4.84,39.4,11.18,7.31,3.74,8.09,6.41,3.76,13.39-13.4,21.61-31.98,37.2-55.31,47.22-4.46,1.91-8.86,2.57-13.34,.17-.77-.41-1.88-.61-1.99-1.6-.17-1.44,1.28-1.51,2.15-1.84,22.2-8.67,41.21-24.39,54.87-43.79,2.24-3.09,1.58-4.79-1.92-6.36-41.48-17.67-87.6-1.75-124.89,18.69-5.38,2.9-10.7,6.03-16.82,7.18-1.3,.24-3.25,1.41-4.02-.32Zm157.89,37.04c-.59,.06-1.25,.22-1.78,.04-7.1-2.44-12.01,1.52-17.28,5.38-14.45,10.59-29.56,20.25-44.97,29.34-15.2,8.98-30.57,9.99-46.4,.02-16.19-10.19-32.83-7.12-49,1.03-2.09,1.05-3.98,3.6-6.21-.13-3.26-5.44-3.53-7.51,.04-10.02,9.66-6.79,20.69-8.84,32.23-8.95,10.68-.11,20.69,1.93,29.79,7.96,9.67,6.41,20.31,6.77,30.29,1.68,18.76-9.56,36.38-21.08,53.22-33.76,2.67-2.01,2.85-4.53,2.9-7.47,.07-20.26,30.05-23.55,31.89-3.06,.82,9.61-5.2,16.95-14.72,17.92Zm4.96-16.31c-.27-3.38-2.42-5.09-5.68-4.93-3.39,.16-5.5,1.98-5.57,5.74,.2,3.27,2.07,5.09,5.35,5.23,3.06,.14,6.14-3.03,5.9-6.04Zm-4.24,55.24c-1.91,9.58-10.72,15.13-21.02,13.18-1.6-.3-3.39-.52-4.69-1.39-5.14-3.44-10.08-1.97-14.79,.57-6.83,3.68-13.42,7.8-20.18,11.61-17.25,9.74-34.51,10.16-51.12-1.15-10.09-6.87-19.73-8.94-29.97-.86-1.63,1.29-3.05,.85-4.32-.54-7.38-8.1-7.77-7.19,1.02-13.12,5.22-3.52,11.01-5.26,17.42-5.29,5.84,.22,11.51,1.57,16.3,5.19,16.62,12.55,33.33,11.5,50.45,.99,7.12-4.37,14.48-8.39,22.19-11.67,2.28-.97,3.39-2.25,3.87-4.83,4.99-23.76,39.75-17.74,34.84,7.32Zm-10.02-4.51c-.08-3.77-3.17-6.76-6.9-6.67-3.84,.09-6.65,2.8-6.64,6.39,.28,8.79,13.31,9.53,13.54,.28Zm-158.41-15.6c-1.85,.16-1.88-1.09-1.91-2.28-.05-2.53-.02-5.07-.02-7.6-.27-11.76,2.68-22.69,8.4-32.95,1.87-3.35,4.24-4.88,8.2-4.93,15.82-.18,29.95,4.76,42.63,13.9,5.55,4,10.87,5.82,17.86,3.68,16.21-4.64,25.55,15.79,14.47,26.38-8.55,7.91-26.65,3.84-26.19-9.59,.06-2.58-.91-4.08-3.12-5.34-6.71-3.87-12.77-8.78-19.79-12.19-6.7-3.26-13.8-4.64-21.08-5.53-2.51-.31-3.82,.86-4.9,2.94-3.85,7.45-5.62,15.34-5.47,23.72,.08,4.45-4.71,9.45-9.09,9.81Zm73.81-15.28c-.15,3.21,1.77,4.99,4.86,5.16,3.38,.18,5.35-1.68,5.45-5.04,.1-3.13-1.68-4.89-4.71-5.33-3.32,.27-5.45,1.85-5.6,5.2Zm43.9,66.58c-19.63,12.71-40.77,15.04-61.02,2.42-6.33-3.91-11.05-3.37-16.8-.35-2.88,1.51-2.79,2.66-.3,4.29,13.92,9.11,28.57,16.1,46.74,15.96,17.09,.49,32.16-7.17,46.2-17.6,1.48-1.1,1.86-2.05,.22-3.52-5.88-5.26-8.4-5.51-15.04-1.19Zm15.54-124.31c.11-4.01-3.45-7.68-7.6-7.83-3.97-.14-7.98,3.44-8.19,7.32-.21,4,3.71,8,7.92,8.08,4.04,.08,7.76-3.5,7.87-7.57Z"></path></svg></svg><style>@media (prefers-color-scheme: light) { :root { filter: none; } }
@media (prefers-color-scheme: dark) { :root { filter: none; } }
</style></svg>